<?xml version="1.0" standalone="no"?>
<!DOCTYPE svg PUBLIC "-//W3C//DTD SVG 1.1//EN" "http://www.w3.org/Graphics/SVG/1.1/DTD/svg11.dtd">
<svg xmlns="http://www.w3.org/2000/svg" id="Layer_2" data-name="Layer 2" viewBox="0 0 1319.45 436.97" width="1319.449951171875" height="436.9700012207031">
  <defs>
    <style>
      .cls-1 {
        fill: #5e17eb;
        stroke-width: 0px;
      }
    </style>
  </defs>
  <g id="TestBoard">
    <g>
      <polygon class="cls-1" points="5.39 30.29 0 408.39 158.7 427.65 170.08 364.74 78.45 353.82 82.64 298.62 174.27 308.25 187.44 228.97 89.83 218.49 97.02 147.76 204.81 161.24 222.78 58.53 5.39 30.29"/>
      <polygon class="cls-1" points="304.82 143.27 209.6 167.02 168.28 430.86 444.96 407.75 432.38 349.97 314.4 348.69 304.82 143.27"/>
      <polygon class="cls-1" points="340.75 46.34 353.33 302.47 466.51 306.32 466.51 258.82 422.8 256.25 418.01 46.34 340.75 46.34"/>
      <path class="cls-1" d="m535.38,5.89l-106.6,40.44v201.57l65.87,3.21-.6-41.08,25.75-.64,10.18,41.73,96.42,3.85L535.38,5.89Zm-48.51,166.26v-93.72l26.35,90.51-26.35,3.21Z"/>
      <path class="cls-1" d="m653.96,263.95h55.1l32.34,126.46c3.92,4.13,7.72,4.43,11.38,0l-24.55-126.46h57.49l3.59,125.18c0,14.79-11.56,17.97-26.35,17.97h-26.95c-13.82,0-26.37-6.43-32.34-19.26l-49.71-123.89Z"/>
      <polygon class="cls-1" points="795.29 263.95 914.46 218.49 914.46 254.96 854.88 273.58 854.88 303.75 909.07 293.48 909.67 327.5 857.57 331.36 857.57 367.3 921.65 369.87 921.65 404.54 795.29 391.06 795.29 263.95"/>
      <polygon class="cls-1" points="921.65 218.49 965.37 199.12 1004.29 272.94 1001.9 130.43 1071.97 143.91 1076.16 404.54 1003.1 398.76 968.36 307.6 970.16 398.76 926.44 400.04 921.65 218.49"/>
      <path class="cls-1" d="m921.65,32.42c-50.96-6.83-105.1-2.94-105.1,29.72v98.3c0,29.18,21.45,33.83,62.7,32.01,27.54-2.6,45.94-5.73,78.91-20.12,20.91-11.36,29-12.56,29-32.92v-67.21c0-25.31-35.77-36.96-65.52-39.78Zm-6.68,116.5c0,6.65-5.03,12.05-11.24,12.05s-11.24-5.4-11.24-12.05v-79.91c0-6.65,5.03-12.05,11.24-12.05s11.24,5.39,11.24,12.05v79.91Z"/>
      <path class="cls-1" d="m699.35,0l-152.1,5.89,73.94,212.59h141.54c27.2-.28,42.85-11.27,44.36-35.4l4.22-126.81c0-47.54-50.49-56.28-111.96-56.28Zm10.72,192.22l-14.74,2.38-25.36-141.55h20.67c6.14-.99,12.23,7.17,13.16,13.75l15.72,111.71c.93,6.58-3.3,12.72-9.44,13.71Z"/>
      <path class="cls-1" d="m1197.35,23.56c-68.75,16.59-112.77,54.16-116.16,126.25v196.78c5.29,59.3,44.17,87.19,109.49,90.37,63.21-6.37,110.82-29.39,117.96-95.6l10.82-227.26c-7.5-81.84-51.21-107.33-122.1-90.56Zm18.64,330.86c0,9.28-7.02,16.8-15.67,16.8s-15.67-7.52-15.67-16.8V111.15c0-9.28,7.02-16.8,15.67-16.8s15.67,7.52,15.67,16.8v243.27Z"/>
      <path class="cls-1" d="m686.83,363.72l-6.33-16.04c-1.53-3.44-6.55-12.19-11.77-16.42-11.08-8.99-19.7-8.98-32.47-10.47,13.66-4.55,23.12-6.35,22.42-16.67-1.29-24.66-24.09-35.68-54.93-36.64l-108.06-3.53-8.81,140.58h167.08c26.52-1.7,49.61,2.57,32.87-40.82Zm-116.02-53.22l-1.13-24.07c0-.08-.05-.74-.06-1.39-.01-.73.98-1.3,2.03-1.17l12.11,1.5c11.37,1.65,9.96,2.44,10.13,6.1l.66,14.06c.46,4.55-2.46,4.14-5.73,4.31l-17.54.94c-.25.01-.47-.11-.47-.29Zm24.64,67.36l-18.52,1c-.27.01-.5-.21-.51-.49l-1.89-40.34c0-.14-.07-1.24-.1-2.34-.04-1.22,1-2.15,2.11-1.9l12.85,2.92c12.07,3.15,10.6,4.42,10.89,10.55l1.1,23.57c.61,7.63-2.48,6.85-5.93,7.03Z"/>
    </g>
  </g>
</svg>